# xmcd
#
# Track frame offsets:
#	200
#	8935
#	19720
#	29175
#	39527
#	54975
#	62532
#	79360
#	87985
#	101617
#	111095
#	121992
#	127000
#
# Disc length: 1883 seconds
#
# Revision: 0
# Processed by: cddbd v1.4PL0 Copyright (c) Steve Scherf et al.
#
# Submitted via: MusicManager v6.0.0.0
#
DISCID=ab07590d
DTITLE=Del McCoury - Livin' on the Mountain
DYEAR=1900
DGENRE=country
TTITLE0=Lonesome Hobo
TTITLE1=Don't Stop the Music
TTITLE2=Farmer John
TTITLE3=How Long Blues
TTITLE4=Bluest Man in Town
TTITLE5=Cluck Old Hen
TTITLE6=Rain and Snow
TTITLE7=Livin' on the Mountain
TTITLE8=I Hope You Have Learned
TTITLE9=Don't Let Your Sweet Love Die
TTITLE10=I'll Still Write Your Name in the Sand
TTITLE11=Golden Slippers
TTITLE12=Mother's Prayer
EXTD=
EXTT0=
EXTT1=
EXTT2=
EXTT3=
EXTT4=
EXTT5=
EXTT6=
EXTT7=
EXTT8=
EXTT9=
EXTT10=
EXTT11=
EXTT12=
PLAYORDER=
